<svg class="main-svg" xmlns="http://www.w3.org/2000/svg" xmlns:xlink="http://www.w3.org/1999/xlink" width="600" height="400" style="" viewBox="0 0 600 400"><rect x="0" y="0" width="600" height="400" style="fill: rgb(255, 255, 255); fill-opacity: 1;"/><defs id="defs-cb9fb5"><g class="clips"><clipPath id="clipcb9fb5xyplot" class="plotclip"><rect width="375" height="260"/></clipPath><clipPath class="axesclip" id="clipcb9fb5x"><rect x="80" y="0" width="375" height="400"/></clipPath><clipPath class="axesclip" id="clipcb9fb5y"><rect x="0" y="60" width="600" height="260"/></clipPath><clipPath class="axesclip" id="clipcb9fb5xy"><rect x="80" y="60" width="375" height="260"/></clipPath></g><g class="gradients"/><g class="patterns"/></defs><g class="bglayer"/><g class="layer-below"><g class="imagelayer"/><g class="shapelayer"/></g><g class="cartesianlayer"><g class="subplot xy"><g class="layer-subplot"><g class="shapelayer"/><g class="imagelayer"/></g><g class="minor-gridlayer"><g class="x"/><g class="y"/></g><g class="gridlayer"><g class="x"/><g class="y"><path class="ygrid crisp" transform="translate(0,262.41999999999996)" d="M80,0h375" style="stroke: rgb(238, 238, 238); stroke-opacity: 1; stroke-width: 1px;"/><path class="ygrid crisp" transform="translate(0,204.85)" d="M80,0h375" style="stroke: rgb(238, 238, 238); stroke-opacity: 1; stroke-width: 1px;"/><path class="ygrid crisp" transform="translate(0,147.26999999999998)" d="M80,0h375" style="stroke: rgb(238, 238, 238); stroke-opacity: 1; stroke-width: 1px;"/><path class="ygrid crisp" transform="translate(0,89.7)" d="M80,0h375" style="stroke: rgb(238, 238, 238); stroke-opacity: 1; stroke-width: 1px;"/></g></g><g class="zerolinelayer"><path class="yzl zl crisp" transform="translate(0,320)" d="M80,0h375" style="stroke: rgb(68, 68, 68); stroke-opacity: 1; stroke-width: 1px;"/></g><g class="layer-between"><g class="shapelayer"/><g class="imagelayer"/></g><path class="xlines-below"/><path class="ylines-below"/><g class="overlines-below"/><g class="xaxislayer-below"/><g class="yaxislayer-below"/><g class="overaxes-below"/><g class="plot" transform="translate(80,60)" clip-path="url(#clipcb9fb5xyplot)"><g class="barlayer mlayer"><g class="trace bars" style="opacity: 1;"><g class="points"><g class="point"><path d="M1.79,260V233.52H16.07V260Z" style="vector-effect: none; opacity: 1; stroke-width: 0px; fill: rgb(31, 119, 180); fill-opacity: 1;"/></g><g class="point"><path d="M19.64,260V228.33H33.93V260Z" style="vector-effect: none; opacity: 1; stroke-width: 0px; fill: rgb(31, 119, 180); fill-opacity: 1;"/></g><g class="point"><path d="M37.5,260V239.27H51.79V260Z" style="vector-effect: none; opacity: 1; stroke-width: 0px; fill: rgb(31, 119, 180); fill-opacity: 1;"/></g><g class="point"><path d="M55.36,260V189.18H69.64V260Z" style="vector-effect: none; opacity: 1; stroke-width: 0px; fill: rgb(31, 119, 180); fill-opacity: 1;"/></g><g class="point"><path d="M73.21,260V178.24H87.5V260Z" style="vector-effect: none; opacity: 1; stroke-width: 0px; fill: rgb(31, 119, 180); fill-opacity: 1;"/></g><g class="point"><path d="M91.07,260V209.33H105.36V260Z" style="vector-effect: none; opacity: 1; stroke-width: 0px; fill: rgb(31, 119, 180); fill-opacity: 1;"/></g><g class="point"><path d="M108.93,260V232.94H123.21V260Z" style="vector-effect: none; opacity: 1; stroke-width: 0px; fill: rgb(31, 119, 180); fill-opacity: 1;"/></g><g class="point"><path d="M126.79,260V229.48H141.07V260Z" style="vector-effect: none; opacity: 1; stroke-width: 0px; fill: rgb(31, 119, 180); fill-opacity: 1;"/></g><g class="point"><path d="M144.64,260V217.97H158.93V260Z" style="vector-effect: none; opacity: 1; stroke-width: 0px; fill: rgb(31, 119, 180); fill-opacity: 1;"/></g><g class="point"><path d="M162.5,260V196.67H176.79V260Z" style="vector-effect: none; opacity: 1; stroke-width: 0px; fill: rgb(31, 119, 180); fill-opacity: 1;"/></g><g class="point"><path d="M180.36,260V189.18H194.64V260Z" style="vector-effect: none; opacity: 1; stroke-width: 0px; fill: rgb(31, 119, 180); fill-opacity: 1;"/></g><g class="point"><path d="M198.21,260V198.97H212.5V260Z" style="vector-effect: none; opacity: 1; stroke-width: 0px; fill: rgb(31, 119, 180); fill-opacity: 1;"/></g><g class="point"><path d="M216.07,260V167.88H230.36V260Z" style="vector-effect: none; opacity: 1; stroke-width: 0px; fill: rgb(31, 119, 180); fill-opacity: 1;"/></g><g class="point"><path d="M233.93,260V140.82H248.21V260Z" style="vector-effect: none; opacity: 1; stroke-width: 0px; fill: rgb(31, 119, 180); fill-opacity: 1;"/></g><g class="point"><path d="M251.79,260V208.18H266.07V260Z" style="vector-effect: none; opacity: 1; stroke-width: 0px; fill: rgb(31, 119, 180); fill-opacity: 1;"/></g><g class="point"><path d="M269.64,260V186.3H283.93V260Z" style="vector-effect: none; opacity: 1; stroke-width: 0px; fill: rgb(31, 119, 180); fill-opacity: 1;"/></g><g class="point"><path d="M287.5,260V151.76H301.79V260Z" style="vector-effect: none; opacity: 1; stroke-width: 0px; fill: rgb(31, 119, 180); fill-opacity: 1;"/></g><g class="point"><path d="M305.36,260V179.97H319.64V260Z" style="vector-effect: none; opacity: 1; stroke-width: 0px; fill: rgb(31, 119, 180); fill-opacity: 1;"/></g><g class="point"><path d="M323.21,260V179.97H337.5V260Z" style="vector-effect: none; opacity: 1; stroke-width: 0px; fill: rgb(31, 119, 180); fill-opacity: 1;"/></g><g class="point"><path d="M341.07,260V194.36H355.36V260Z" style="vector-effect: none; opacity: 1; stroke-width: 0px; fill: rgb(31, 119, 180); fill-opacity: 1;"/></g><g class="point"><path d="M358.93,260V250.21H373.21V260Z" style="vector-effect: none; opacity: 1; stroke-width: 0px; fill: rgb(31, 119, 180); fill-opacity: 1;"/></g></g></g><g class="trace bars" style="opacity: 1;"><g class="points"><g class="point"><path d="M1.79,233.52V226.03H16.07V233.52Z" style="vector-effect: none; opacity: 1; stroke-width: 0px; fill: rgb(255, 127, 14); fill-opacity: 1;"/></g><g class="point"><path d="M19.64,228.33V212.79H33.93V228.33Z" style="vector-effect: none; opacity: 1; stroke-width: 0px; fill: rgb(255, 127, 14); fill-opacity: 1;"/></g><g class="point"><path d="M37.5,239.27V217.97H51.79V239.27Z" style="vector-effect: none; opacity: 1; stroke-width: 0px; fill: rgb(255, 127, 14); fill-opacity: 1;"/></g><g class="point"><path d="M55.36,189.18V133.33H69.64V189.18Z" style="vector-effect: none; opacity: 1; stroke-width: 0px; fill: rgb(255, 127, 14); fill-opacity: 1;"/></g><g class="point"><path d="M73.21,178.24V92.45H87.5V178.24Z" style="vector-effect: none; opacity: 1; stroke-width: 0px; fill: rgb(255, 127, 14); fill-opacity: 1;"/></g><g class="point"><path d="M91.07,209.33V163.85H105.36V209.33Z" style="vector-effect: none; opacity: 1; stroke-width: 0px; fill: rgb(255, 127, 14); fill-opacity: 1;"/></g><g class="point"><path d="M108.93,232.94V218.55H123.21V232.94Z" style="vector-effect: none; opacity: 1; stroke-width: 0px; fill: rgb(255, 127, 14); fill-opacity: 1;"/></g><g class="point"><path d="M126.79,229.48V220.85H141.07V229.48Z" style="vector-effect: none; opacity: 1; stroke-width: 0px; fill: rgb(255, 127, 14); fill-opacity: 1;"/></g><g class="point"><path d="M144.64,217.97V208.18H158.93V217.97Z" style="vector-effect: none; opacity: 1; stroke-width: 0px; fill: rgb(255, 127, 14); fill-opacity: 1;"/></g><g class="point"><path d="M162.5,196.67V178.82H176.79V196.67Z" style="vector-effect: none; opacity: 1; stroke-width: 0px; fill: rgb(255, 127, 14); fill-opacity: 1;"/></g><g class="point"><path d="M180.36,189.18V163.27H194.64V189.18Z" style="vector-effect: none; opacity: 1; stroke-width: 0px; fill: rgb(255, 127, 14); fill-opacity: 1;"/></g><g class="point"><path d="M198.21,198.97V170.76H212.5V198.97Z" style="vector-effect: none; opacity: 1; stroke-width: 0px; fill: rgb(255, 127, 14); fill-opacity: 1;"/></g><g class="point"><path d="M216.07,167.88V111.45H230.36V167.88Z" style="vector-effect: none; opacity: 1; stroke-width: 0px; fill: rgb(255, 127, 14); fill-opacity: 1;"/></g><g class="point"><path d="M233.93,140.82V72.3H248.21V140.82Z" style="vector-effect: none; opacity: 1; stroke-width: 0px; fill: rgb(255, 127, 14); fill-opacity: 1;"/></g><g class="point"><path d="M251.79,208.18V196.67H266.07V208.18Z" style="vector-effect: none; opacity: 1; stroke-width: 0px; fill: rgb(255, 127, 14); fill-opacity: 1;"/></g><g class="point"><path d="M269.64,186.3V173.06H283.93V186.3Z" style="vector-effect: none; opacity: 1; stroke-width: 0px; fill: rgb(255, 127, 14); fill-opacity: 1;"/></g><g class="point"><path d="M287.5,151.76V121.24H301.79V151.76Z" style="vector-effect: none; opacity: 1; stroke-width: 0px; fill: rgb(255, 127, 14); fill-opacity: 1;"/></g><g class="point"><path d="M305.36,179.97V142.55H319.64V179.97Z" style="vector-effect: none; opacity: 1; stroke-width: 0px; fill: rgb(255, 127, 14); fill-opacity: 1;"/></g><g class="point"><path d="M323.21,179.97V140.82H337.5V179.97Z" style="vector-effect: none; opacity: 1; stroke-width: 0px; fill: rgb(255, 127, 14); fill-opacity: 1;"/></g><g class="point"><path d="M341.07,194.36V141.39H355.36V194.36Z" style="vector-effect: none; opacity: 1; stroke-width: 0px; fill: rgb(255, 127, 14); fill-opacity: 1;"/></g><g class="point"><path d="M358.93,250.21V242.15H373.21V250.21Z" style="vector-effect: none; opacity: 1; stroke-width: 0px; fill: rgb(255, 127, 14); fill-opacity: 1;"/></g></g></g><g class="trace bars" style="opacity: 1;"><g class="points"><g class="point"><path d="M1.79,226.03V222H16.07V226.03Z" style="vector-effect: none; opacity: 1; stroke-width: 0px; fill: rgb(44, 160, 44); fill-opacity: 1;"/></g><g class="point"><path d="M19.64,212.79V204.73H33.93V212.79Z" style="vector-effect: none; opacity: 1; stroke-width: 0px; fill: rgb(44, 160, 44); fill-opacity: 1;"/></g><g class="point"><path d="M37.5,217.97V207.61H51.79V217.97Z" style="vector-effect: none; opacity: 1; stroke-width: 0px; fill: rgb(44, 160, 44); fill-opacity: 1;"/></g><g class="point"><path d="M55.36,133.33V99.94H69.64V133.33Z" style="vector-effect: none; opacity: 1; stroke-width: 0px; fill: rgb(44, 160, 44); fill-opacity: 1;"/></g><g class="point"><path d="M73.21,92.45V52.15H87.5V92.45Z" style="vector-effect: none; opacity: 1; stroke-width: 0px; fill: rgb(44, 160, 44); fill-opacity: 1;"/></g><g class="point"><path d="M91.07,163.85V146.58H105.36V163.85Z" style="vector-effect: none; opacity: 1; stroke-width: 0px; fill: rgb(44, 160, 44); fill-opacity: 1;"/></g><g class="point"><path d="M108.93,218.55V208.18H123.21V218.55Z" style="vector-effect: none; opacity: 1; stroke-width: 0px; fill: rgb(44, 160, 44); fill-opacity: 1;"/></g><g class="point"><path d="M126.79,220.85V215.09H141.07V220.85Z" style="vector-effect: none; opacity: 1; stroke-width: 0px; fill: rgb(44, 160, 44); fill-opacity: 1;"/></g><g class="point"><path d="M144.64,208.18V200.12H158.93V208.18Z" style="vector-effect: none; opacity: 1; stroke-width: 0px; fill: rgb(44, 160, 44); fill-opacity: 1;"/></g><g class="point"><path d="M162.5,178.82V167.3H176.79V178.82Z" style="vector-effect: none; opacity: 1; stroke-width: 0px; fill: rgb(44, 160, 44); fill-opacity: 1;"/></g><g class="point"><path d="M180.36,163.27V144.27H194.64V163.27Z" style="vector-effect: none; opacity: 1; stroke-width: 0px; fill: rgb(44, 160, 44); fill-opacity: 1;"/></g><g class="point"><path d="M198.21,170.76V148.3H212.5V170.76Z" style="vector-effect: none; opacity: 1; stroke-width: 0px; fill: rgb(44, 160, 44); fill-opacity: 1;"/></g><g class="point"><path d="M216.07,111.45V83.82H230.36V111.45Z" style="vector-effect: none; opacity: 1; stroke-width: 0px; fill: rgb(44, 160, 44); fill-opacity: 1;"/></g><g class="point"><path d="M233.93,72.3V46.97H248.21V72.3Z" style="vector-effect: none; opacity: 1; stroke-width: 0px; fill: rgb(44, 160, 44); fill-opacity: 1;"/></g><g class="point"><path d="M251.79,196.67V190.33H266.07V196.67Z" style="vector-effect: none; opacity: 1; stroke-width: 0px; fill: rgb(44, 160, 44); fill-opacity: 1;"/></g><g class="point"><path d="M269.64,173.06V163.85H283.93V173.06Z" style="vector-effect: none; opacity: 1; stroke-width: 0px; fill: rgb(44, 160, 44); fill-opacity: 1;"/></g><g class="point"><path d="M287.5,121.24V102.82H301.79V121.24Z" style="vector-effect: none; opacity: 1; stroke-width: 0px; fill: rgb(44, 160, 44); fill-opacity: 1;"/></g><g class="point"><path d="M305.36,142.55V120.67H319.64V142.55Z" style="vector-effect: none; opacity: 1; stroke-width: 0px; fill: rgb(44, 160, 44); fill-opacity: 1;"/></g><g class="point"><path d="M323.21,140.82V113.76H337.5V140.82Z" style="vector-effect: none; opacity: 1; stroke-width: 0px; fill: rgb(44, 160, 44); fill-opacity: 1;"/></g><g class="point"><path d="M341.07,141.39V112.03H355.36V141.39Z" style="vector-effect: none; opacity: 1; stroke-width: 0px; fill: rgb(44, 160, 44); fill-opacity: 1;"/></g><g class="point"><path d="M358.93,242.15V240.42H373.21V242.15Z" style="vector-effect: none; opacity: 1; stroke-width: 0px; fill: rgb(44, 160, 44); fill-opacity: 1;"/></g></g></g><g class="trace bars" style="opacity: 1;"><g class="points"><g class="point"><path d="M1.79,222V215.67H16.07V222Z" style="vector-effect: none; opacity: 1; stroke-width: 0px; fill: rgb(214, 39, 40); fill-opacity: 1;"/></g><g class="point"><path d="M19.64,204.73V196.67H33.93V204.73Z" style="vector-effect: none; opacity: 1; stroke-width: 0px; fill: rgb(214, 39, 40); fill-opacity: 1;"/></g><g class="point"><path d="M37.5,207.61V198.39H51.79V207.61Z" style="vector-effect: none; opacity: 1; stroke-width: 0px; fill: rgb(214, 39, 40); fill-opacity: 1;"/></g><g class="point"><path d="M55.36,99.94V67.12H69.64V99.94Z" style="vector-effect: none; opacity: 1; stroke-width: 0px; fill: rgb(214, 39, 40); fill-opacity: 1;"/></g><g class="point"><path d="M73.21,52.15V22.21H87.5V52.15Z" style="vector-effect: none; opacity: 1; stroke-width: 0px; fill: rgb(214, 39, 40); fill-opacity: 1;"/></g><g class="point"><path d="M91.07,146.58V128.73H105.36V146.58Z" style="vector-effect: none; opacity: 1; stroke-width: 0px; fill: rgb(214, 39, 40); fill-opacity: 1;"/></g><g class="point"><path d="M108.93,208.18V194.94H123.21V208.18Z" style="vector-effect: none; opacity: 1; stroke-width: 0px; fill: rgb(214, 39, 40); fill-opacity: 1;"/></g><g class="point"><path d="M126.79,215.09V204.15H141.07V215.09Z" style="vector-effect: none; opacity: 1; stroke-width: 0px; fill: rgb(214, 39, 40); fill-opacity: 1;"/></g><g class="point"><path d="M144.64,200.12V188.61H158.93V200.12Z" style="vector-effect: none; opacity: 1; stroke-width: 0px; fill: rgb(214, 39, 40); fill-opacity: 1;"/></g><g class="point"><path d="M162.5,167.3V151.18H176.79V167.3Z" style="vector-effect: none; opacity: 1; stroke-width: 0px; fill: rgb(214, 39, 40); fill-opacity: 1;"/></g><g class="point"><path d="M180.36,144.27V126.42H194.64V144.27Z" style="vector-effect: none; opacity: 1; stroke-width: 0px; fill: rgb(214, 39, 40); fill-opacity: 1;"/></g><g class="point"><path d="M198.21,148.3V127.58H212.5V148.3Z" style="vector-effect: none; opacity: 1; stroke-width: 0px; fill: rgb(214, 39, 40); fill-opacity: 1;"/></g><g class="point"><path d="M216.07,83.82V61.36H230.36V83.82Z" style="vector-effect: none; opacity: 1; stroke-width: 0px; fill: rgb(214, 39, 40); fill-opacity: 1;"/></g><g class="point"><path d="M233.93,46.97V13H248.21V46.97Z" style="vector-effect: none; opacity: 1; stroke-width: 0px; fill: rgb(214, 39, 40); fill-opacity: 1;"/></g><g class="point"><path d="M251.79,190.33V179.39H266.07V190.33Z" style="vector-effect: none; opacity: 1; stroke-width: 0px; fill: rgb(214, 39, 40); fill-opacity: 1;"/></g><g class="point"><path d="M269.64,163.85V148.3H283.93V163.85Z" style="vector-effect: none; opacity: 1; stroke-width: 0px; fill: rgb(214, 39, 40); fill-opacity: 1;"/></g><g class="point"><path d="M287.5,102.82V82.67H301.79V102.82Z" style="vector-effect: none; opacity: 1; stroke-width: 0px; fill: rgb(214, 39, 40); fill-opacity: 1;"/></g><g class="point"><path d="M305.36,120.67V103.97H319.64V120.67Z" style="vector-effect: none; opacity: 1; stroke-width: 0px; fill: rgb(214, 39, 40); fill-opacity: 1;"/></g><g class="point"><path d="M323.21,113.76V93.03H337.5V113.76Z" style="vector-effect: none; opacity: 1; stroke-width: 0px; fill: rgb(214, 39, 40); fill-opacity: 1;"/></g><g class="point"><path d="M341.07,112.03V86.7H355.36V112.03Z" style="vector-effect: none; opacity: 1; stroke-width: 0px; fill: rgb(214, 39, 40); fill-opacity: 1;"/></g><g class="point"><path d="M358.93,240.42V238.12H373.21V240.42Z" style="vector-effect: none; opacity: 1; stroke-width: 0px; fill: rgb(214, 39, 40); fill-opacity: 1;"/></g></g></g></g></g><g class="overplot"/><path class="xlines-above crisp" d="M0,0" style="fill: none;"/><path class="ylines-above crisp" d="M0,0" style="fill: none;"/><g class="overlines-above"/><g class="xaxislayer-above"><g class="xtick"><text text-anchor="start" x="0" y="333" transform="translate(88.93,0) rotate(90,0,327)" style="font-family: 'Open Sans', verdana, arial, sans-serif; font-size: 12px; fill: rgb(68, 68, 68); fill-opacity: 1; white-space: pre; opacity: 1;">ICLR'18</text></g><g class="xtick"><text text-anchor="start" x="0" y="333" transform="translate(106.78999999999999,0) rotate(90,0,327)" style="font-family: 'Open Sans', verdana, arial, sans-serif; font-size: 12px; fill: rgb(68, 68, 68); fill-opacity: 1; white-space: pre; opacity: 1;">ICLR'19</text></g><g class="xtick"><text text-anchor="start" x="0" y="333" transform="translate(124.64,0) rotate(90,0,327)" style="font-family: 'Open Sans', verdana, arial, sans-serif; font-size: 12px; fill: rgb(68, 68, 68); fill-opacity: 1; white-space: pre; opacity: 1;">ICLR'21</text></g><g class="xtick"><text text-anchor="start" x="0" y="333" transform="translate(142.5,0) rotate(90,0,327)" style="font-family: 'Open Sans', verdana, arial, sans-serif; font-size: 12px; fill: rgb(68, 68, 68); fill-opacity: 1; white-space: pre; opacity: 1;">ICLR'22</text></g><g class="xtick"><text text-anchor="start" x="0" y="333" transform="translate(160.36,0) rotate(90,0,327)" style="font-family: 'Open Sans', verdana, arial, sans-serif; font-size: 12px; fill: rgb(68, 68, 68); fill-opacity: 1; white-space: pre; opacity: 1;">ICLR'23</text></g><g class="xtick"><text text-anchor="start" x="0" y="333" transform="translate(178.20999999999998,0) rotate(90,0,327)" style="font-family: 'Open Sans', verdana, arial, sans-serif; font-size: 12px; fill: rgb(68, 68, 68); fill-opacity: 1; white-space: pre; opacity: 1;">ICLR'24</text></g><g class="xtick"><text text-anchor="start" x="0" y="333" transform="translate(196.07,0) rotate(90,0,327)" style="font-family: 'Open Sans', verdana, arial, sans-serif; font-size: 12px; fill: rgb(68, 68, 68); fill-opacity: 1; white-space: pre; opacity: 1;">RLC'24</text></g><g class="xtick"><text text-anchor="start" x="0" y="333" transform="translate(213.93,0) rotate(90,0,327)" style="font-family: 'Open Sans', verdana, arial, sans-serif; font-size: 12px; fill: rgb(68, 68, 68); fill-opacity: 1; white-space: pre; opacity: 1;">ICML'18</text></g><g class="xtick"><text text-anchor="start" x="0" y="333" transform="translate(231.79,0) rotate(90,0,327)" style="font-family: 'Open Sans', verdana, arial, sans-serif; font-size: 12px; fill: rgb(68, 68, 68); fill-opacity: 1; white-space: pre; opacity: 1;">ICML'19</text></g><g class="xtick"><text text-anchor="start" x="0" y="333" transform="translate(249.64,0) rotate(90,0,327)" style="font-family: 'Open Sans', verdana, arial, sans-serif; font-size: 12px; fill: rgb(68, 68, 68); fill-opacity: 1; white-space: pre; opacity: 1;">ICML'20</text></g><g class="xtick"><text text-anchor="start" x="0" y="333" transform="translate(267.5,0) rotate(90,0,327)" style="font-family: 'Open Sans', verdana, arial, sans-serif; font-size: 12px; fill: rgb(68, 68, 68); fill-opacity: 1; white-space: pre; opacity: 1;">ICML'21</text></g><g class="xtick"><text text-anchor="start" x="0" y="333" transform="translate(285.36,0) rotate(90,0,327)" style="font-family: 'Open Sans', verdana, arial, sans-serif; font-size: 12px; fill: rgb(68, 68, 68); fill-opacity: 1; white-space: pre; opacity: 1;">ICML'22</text></g><g class="xtick"><text text-anchor="start" x="0" y="333" transform="translate(303.21000000000004,0) rotate(90,0,327)" style="font-family: 'Open Sans', verdana, arial, sans-serif; font-size: 12px; fill: rgb(68, 68, 68); fill-opacity: 1; white-space: pre; opacity: 1;">ICML'23</text></g><g class="xtick"><text text-anchor="start" x="0" y="333" transform="translate(321.07,0) rotate(90,0,327)" style="font-family: 'Open Sans', verdana, arial, sans-serif; font-size: 12px; fill: rgb(68, 68, 68); fill-opacity: 1; white-space: pre; opacity: 1;">ICML'24</text></g><g class="xtick"><text text-anchor="start" x="0" y="333" transform="translate(338.93,0) rotate(90,0,327)" style="font-family: 'Open Sans', verdana, arial, sans-serif; font-size: 12px; fill: rgb(68, 68, 68); fill-opacity: 1; white-space: pre; opacity: 1;">NeurIPS'18</text></g><g class="xtick"><text text-anchor="start" x="0" y="333" transform="translate(356.79,0) rotate(90,0,327)" style="font-family: 'Open Sans', verdana, arial, sans-serif; font-size: 12px; fill: rgb(68, 68, 68); fill-opacity: 1; white-space: pre; opacity: 1;">NeurIPS'19</text></g><g class="xtick"><text text-anchor="start" x="0" y="333" transform="translate(374.64,0) rotate(90,0,327)" style="font-family: 'Open Sans', verdana, arial, sans-serif; font-size: 12px; fill: rgb(68, 68, 68); fill-opacity: 1; white-space: pre; opacity: 1;">NeurIPS'20</text></g><g class="xtick"><text text-anchor="start" x="0" y="333" transform="translate(392.5,0) rotate(90,0,327)" style="font-family: 'Open Sans', verdana, arial, sans-serif; font-size: 12px; fill: rgb(68, 68, 68); fill-opacity: 1; white-space: pre; opacity: 1;">NeurIPS'21</text></g><g class="xtick"><text text-anchor="start" x="0" y="333" transform="translate(410.36,0) rotate(90,0,327)" style="font-family: 'Open Sans', verdana, arial, sans-serif; font-size: 12px; fill: rgb(68, 68, 68); fill-opacity: 1; white-space: pre; opacity: 1;">NeurIPS'22</text></g><g class="xtick"><text text-anchor="start" x="0" y="333" transform="translate(428.21,0) rotate(90,0,327)" style="font-family: 'Open Sans', verdana, arial, sans-serif; font-size: 12px; fill: rgb(68, 68, 68); fill-opacity: 1; white-space: pre; opacity: 1;">NeurIPS'23</text></g><g class="xtick"><text text-anchor="start" x="0" y="333" transform="translate(446.07,0) rotate(90,0,327)" style="font-family: 'Open Sans', verdana, arial, sans-serif; font-size: 12px; fill: rgb(68, 68, 68); fill-opacity: 1; white-space: pre; opacity: 1;">NeurIPS'24</text></g></g><g class="yaxislayer-above"><g class="ytick"><text text-anchor="end" x="79" y="4.199999999999999" transform="translate(0,320)" style="font-family: 'Open Sans', verdana, arial, sans-serif; font-size: 12px; fill: rgb(68, 68, 68); fill-opacity: 1; white-space: pre; opacity: 1;">0</text></g><g class="ytick"><text text-anchor="end" x="79" y="4.199999999999999" style="font-family: 'Open Sans', verdana, arial, sans-serif; font-size: 12px; fill: rgb(68, 68, 68); fill-opacity: 1; white-space: pre; opacity: 1;" transform="translate(0,262.41999999999996)">100</text></g><g class="ytick"><text text-anchor="end" x="79" y="4.199999999999999" style="font-family: 'Open Sans', verdana, arial, sans-serif; font-size: 12px; fill: rgb(68, 68, 68); fill-opacity: 1; white-space: pre; opacity: 1;" transform="translate(0,204.85)">200</text></g><g class="ytick"><text text-anchor="end" x="79" y="4.199999999999999" style="font-family: 'Open Sans', verdana, arial, sans-serif; font-size: 12px; fill: rgb(68, 68, 68); fill-opacity: 1; white-space: pre; opacity: 1;" transform="translate(0,147.26999999999998)">300</text></g><g class="ytick"><text text-anchor="end" x="79" y="4.199999999999999" style="font-family: 'Open Sans', verdana, arial, sans-serif; font-size: 12px; fill: rgb(68, 68, 68); fill-opacity: 1; white-space: pre; opacity: 1;" transform="translate(0,89.7)">400</text></g></g><g class="overaxes-above"/></g></g><g class="polarlayer"/><g class="smithlayer"/><g class="ternarylayer"/><g class="geolayer"/><g class="funnelarealayer"/><g class="pielayer"/><g class="iciclelayer"/><g class="treemaplayer"/><g class="sunburstlayer"/><g class="glimages"/><defs id="topdefs-cb9fb5"><g class="clips"/><clipPath id="legendcb9fb5"><rect width="126" height="105" x="0" y="0"/></clipPath></defs><g class="layer-above"><g class="imagelayer"/><g class="shapelayer"/></g><g class="infolayer"><g class="legend" pointer-events="all" transform="translate(462.5,60)"><rect class="bg" shape-rendering="crispEdges" style="stroke: rgb(68, 68, 68); stroke-opacity: 1; fill: rgb(255, 255, 255); fill-opacity: 1; stroke-width: 0px;" width="126" height="105" x="0" y="0"/><g class="scrollbox" transform="" clip-path="url(#legendcb9fb5)"><text class="legendtitletext" text-anchor="start" x="2" y="18.2" style="font-family: 'Open Sans', verdana, arial, sans-serif; font-size: 14px; fill: rgb(68, 68, 68); fill-opacity: 1; white-space: pre;">Number of Seeds</text><g class="groups" transform=""><g class="traces" transform="translate(0,32.7)" style="opacity: 1;"><text class="legendtext" text-anchor="start" x="40" y="4.680000000000001" style="font-family: 'Open Sans', verdana, arial, sans-serif; font-size: 12px; fill: rgb(68, 68, 68); fill-opacity: 1; white-space: pre;">0</text><g class="layers" style="opacity: 1;"><g class="legendfill"/><g class="legendlines"/><g class="legendsymbols"><g class="legendpoints"><path class="legendundefined" d="M6,6H-6V-6H6Z" transform="translate(20,0)" style="stroke-width: 0px; fill: rgb(31, 119, 180); fill-opacity: 1;"/></g></g></g><rect class="legendtoggle" x="0" y="-9.5" width="86.140625" height="19" style="fill: rgb(0, 0, 0); fill-opacity: 0;"/></g></g><g class="groups" transform=""><g class="traces" transform="translate(0,51.7)" style="opacity: 1;"><text class="legendtext" text-anchor="start" x="40" y="4.680000000000001" style="font-family: 'Open Sans', verdana, arial, sans-serif; font-size: 12px; fill: rgb(68, 68, 68); fill-opacity: 1; white-space: pre;">1-5</text><g class="layers" style="opacity: 1;"><g class="legendfill"/><g class="legendlines"/><g class="legendsymbols"><g class="legendpoints"><path class="legendundefined" d="M6,6H-6V-6H6Z" transform="translate(20,0)" style="stroke-width: 0px; fill: rgb(255, 127, 14); fill-opacity: 1;"/></g></g></g><rect class="legendtoggle" x="0" y="-9.5" width="86.140625" height="19" style="fill: rgb(0, 0, 0); fill-opacity: 0;"/></g></g><g class="groups" transform=""><g class="traces" transform="translate(0,70.7)" style="opacity: 1;"><text class="legendtext" text-anchor="start" x="40" y="4.680000000000001" style="font-family: 'Open Sans', verdana, arial, sans-serif; font-size: 12px; fill: rgb(68, 68, 68); fill-opacity: 1; white-space: pre;">6-10</text><g class="layers" style="opacity: 1;"><g class="legendfill"/><g class="legendlines"/><g class="legendsymbols"><g class="legendpoints"><path class="legendundefined" d="M6,6H-6V-6H6Z" transform="translate(20,0)" style="stroke-width: 0px; fill: rgb(44, 160, 44); fill-opacity: 1;"/></g></g></g><rect class="legendtoggle" x="0" y="-9.5" width="86.140625" height="19" style="fill: rgb(0, 0, 0); fill-opacity: 0;"/></g></g><g class="groups" transform=""><g class="traces" transform="translate(0,89.7)" style="opacity: 1;"><text class="legendtext" text-anchor="start" x="40" y="4.680000000000001" style="font-family: 'Open Sans', verdana, arial, sans-serif; font-size: 12px; fill: rgb(68, 68, 68); fill-opacity: 1; white-space: pre;">over 10</text><g class="layers" style="opacity: 1;"><g class="legendfill"/><g class="legendlines"/><g class="legendsymbols"><g class="legendpoints"><path class="legendundefined" d="M6,6H-6V-6H6Z" transform="translate(20,0)" style="stroke-width: 0px; fill: rgb(214, 39, 40); fill-opacity: 1;"/></g></g></g><rect class="legendtoggle" x="0" y="-9.5" width="86.140625" height="19" style="fill: rgb(0, 0, 0); fill-opacity: 0;"/></g></g></g><rect class="scrollbar" rx="20" ry="3" width="0" height="0" style="fill: rgb(128, 139, 164); fill-opacity: 1;" x="0" y="0"/></g><g class="g-gtitle"><text class="gtitle" x="300" y="30" text-anchor="middle" dy="0em" style="font-family: 'Open Sans', verdana, arial, sans-serif; font-size: 17px; fill: rgb(68, 68, 68); opacity: 1; white-space: pre;">Number of Seeds in RL Papers per Conference &amp; Year</text></g><g class="g-xtitle" transform="translate(0,25)"><text class="xtitle" x="267.5" y="372" text-anchor="middle" style="font-family: 'Open Sans', verdana, arial, sans-serif; font-size: 14px; fill: rgb(68, 68, 68); opacity: 1; white-space: pre;">Conference Edition</text></g><g class="g-ytitle"><text class="ytitle" transform="rotate(-90,42,190)" x="42" y="190" text-anchor="middle" style="font-family: 'Open Sans', verdana, arial, sans-serif; font-size: 14px; fill: rgb(68, 68, 68); opacity: 1; white-space: pre;">Number of Papers</text></g></g></svg>